# AST/ASF file generated using VICON BodyLanguage
# -----------------------------------------------
:version 1.10
:name VICON
:units
  mass 1.0
  length 0.1
  angle deg
:documentation
   .ast/.asf automatically generated from VICON data using
   VICON BodyBuilder and BodyLanguage model FULLBODY5.MOD
:root
   order TX TY TZ RZ RY RX
   axis XYZ
   position 0 0 0  
   orientation 0 -0 0 
:bonedata
  begin
     id 1 
     name lhipjoint
     direction 0.961525 -0.229516 0.150972 
     length 0.502153 
     axis 0 -0 0  XYZ
  end
  begin
     id 2 
     name lfemur
     direction 0.173648 -0.984808 0  
     length 1.83052  
     axis 0 -0 10  XYZ
    dof rx ry rz
    limits (-180.0 180.0)
           (-180.0 180.0)
           (-180.0 180.0)
  end
  begin
     id 3 
     name ltibia
     direction 0.173629 -0.984811 0   
     length 1.50296   
     axis 0 -0 10   XYZ
    dof rx ry rz
    limits (-180.0 180.0)
           (-180.0 180.0)
           (-180.0 180.0)
  end
  begin
     id 4 
     name lfoot
     direction 7.59329e-012 -0.227408 0.9738   
     length 0.574743   
     axis -90 -1.73656e-015 10   XYZ
    dof rx ry rz
    limits (-180.0 180.0)
           (-180.0 180.0)
           (-180.0 180.0)
  end
  begin
     id 5 
     name ltoes
     direction 7.79885e-012 -4.41741e-011 1   
     length 0.28489   
     axis -90 -1.73656e-015 10   XYZ
    dof rx ry rz
    limits (-180.0 180.0)
           (-180.0 180.0)
           (-180.0 180.0)
  end
  begin
     id 6 
     name rhipjoint
     direction -0.970498 -0.201437 0.132502   
     length 0.572149  
     axis 0 -0 0  XYZ 
  end
  begin
     id 7 
     name rfemur
     direction -0.173648 -0.984808 0   
     length 1.71866   
     axis 0 -0 -10   XYZ
    dof rx ry rz
    limits (-180.0 180.0)
           (-180.0 180.0)
           (-180.0 180.0)
  end
  begin
     id 8 
     name rtibia
     direction -0.173624 -0.984812 0   
     length 1.42623   
     axis 0 -0 -10   XYZ
    dof rx ry rz
    limits (-180.0 180.0)
           (-180.0 180.0)
           (-180.0 180.0)
 end
 begin
     id 9 
     name rfoot
     direction -7.12931e-012 -0.404275 0.914637   
     length 0.524692  
     axis -90 1.73656e-015 -10   XYZ
    dof rx ry rz
    limits (-180.0 180.0)
           (-180.0 180.0)
           (-180.0 180.0)
  end
  begin
     id 10 
     name rtoes
     direction -7.79289e-012 -4.41454e-011 1   
     length 0.254983   
     axis -90 1.73656e-015 -10   XYZ
    dof rx ry rz
    limits (-180.0 180.0)
           (-180.0 180.0)
           (-180.0 180.0)
  end
  begin
     id 11 
     name lowerback
     direction -0.0214086 0.993738 0.109665   
     length 0.417614   
     axis 0 -0 0   XYZ
    dof rx ry rz
    limits (-180.0 180.0)
           (-180.0 180.0)
           (-180.0 180.0)
  end
  begin
     id 12 
     name upperback
     direction 8.15962e-005 0.99996 0.00893412   
     length 0.419234   
     axis 0 -0 0   XYZ
    dof rx ry rz
    limits (-180.0 180.0)
           (-180.0 180.0)
           (-180.0 180.0)
  end
  begin
     id 13 
     name thorax
     direction 0.00826031 0.999067 -0.0423848   
     length 0.424697   
     axis 0 -0 0   XYZ
    dof rx ry rz
    limits (-180.0 180.0)
           (-180.0 180.0)
           (-180.0 180.0)
  end
  begin
     id 14 
     name lowerneck
     direction -0.0196262 0.994272 -0.105058   
     length 0.355877   
     axis 0 -0 0   XYZ
    dof rx ry rz
    limits (-180.0 180.0)
           (-180.0 180.0)
           (-180.0 180.0)
  end
  begin
     id 15 
     name upperneck
     direction 0.000117372 0.999091 0.0426261   
     length 0.351054   
     axis 0 -0 0   XYZ
    dof rx ry rz
    limits (-180.0 180.0)
           (-180.0 180.0)
           (-180.0 180.0)
  end
  begin
     id 16
     name head
     direction 0.00157618 0.999651 0.0263619  
     length 0.374844  
     axis 0 -0 0   XYZ
    dof rx ry rz
    limits (-180.0 180.0)
           (-180.0 180.0)
           (-180.0 180.0)
  end
  begin
     id 17 
     name lshoulderjoint
     direction 0.981627 -0.190809 0  
     length 0.701763  
     axis 0 -0 -11   XYZ
    dof rx ry rz
    limits (-180.0 180.0)
           (-180.0 180.0)
           (-180.0 180.0)
  end
  begin
     id 18 
     name lhumerus
     direction 0.48481 -0.87462 -1.80676e-026   
     length 0.994704   
     axis -180 5.14477e-009 -151   XYZ
    dof rx ry rz
    limits (-180.0 180.0)
           (-180.0 180.0)
           (-180.0 180.0)
  end
  begin
     id 19
     name lradius
     direction 0.48481 -0.87462 -3.2569e-026   
     length 0.617638   
     axis -180 5.14477e-009 -151   XYZ
    dof rx ry rz
    limits (-180.0 180.0)
           (-180.0 180.0)
           (-180.0 180.0)
  end
  begin
     id 20
     name lwrist
     direction 0.48481 -0.87462 -6.73202e-026   
     length 0.308819   
     axis -180 5.14477e-009 -151   XYZ
    dof rx ry rz
    limits (-180.0 180.0)
           (-180.0 180.0)
           (-180.0 180.0)
  end
  begin
     id 21 
     name lhand
     direction 0.478366 -0.863761 -0.158376   
     length 0.291656   
     axis -180 5.14477e-009 -151   XYZ
    dof rx ry rz
    limits (-180.0 180.0)
           (-180.0 180.0)
           (-180.0 180.0)
  end
  begin
     id 22 
     name rshoulderjoint
     direction -0.981627 -0.190809 0   
     length 0.66654  
     axis 0 -0 11   XYZ 
    dof rx ry rz
    limits (-180.0 180.0)
           (-180.0 180.0)
           (-180.0 180.0)
  end
  begin
     id 23 
     name rhumerus
     direction -0.48481 -0.87462 1.77576e-026  
     length 1.15089   
     axis 180 5.14477e-009 151   XYZ
    dof rx ry rz
    limits (-180.0 180.0)
           (-180.0 180.0)
           (-180.0 180.0)
  end
  begin
     id 24 
     name rradius
     direction -0.48481 -0.87462 3.79421e-026   
     length 0.613887   
     axis 180 5.14477e-009 151   XYZ
    dof rx ry rz
    limits (-180.0 180.0)
           (-180.0 180.0)
           (-180.0 180.0)
  end
  begin
     id 25 
     name rwrist
     direction -0.48481 -0.87462 5.43623e-026   
     length 0.306944   
     axis 180 5.14477e-009 151   XYZ
    dof rx ry rz
    limits (-180.0 180.0)
           (-180.0 180.0)
           (-180.0 180.0)
  end
  begin
     id 26
     name rhand
     direction -0.479273 -0.864638 -0.150661   
     length 0.306429   
     axis 180 5.14477e-009 151   XYZ
    dof rx ry rz
    limits (-180.0 180.0)
           (-180.0 180.0)
           (-180.0 180.0)
  end
:hierarchy
  begin
    root lhipjoint rhipjoint lowerback 
    lhipjoint lfemur
    lfemur ltibia
    ltibia lfoot
    lfoot ltoes
    rhipjoint rfemur
    rfemur rtibia
    rtibia rfoot
    rfoot rtoes
    lowerback upperback
    upperback thorax
    thorax lowerneck lshoulderjoint rshoulderjoint
    lowerneck upperneck
    upperneck head
    lshoulderjoint lhumerus
    lhumerus lradius
    lradius lwrist
    lwrist lhand
    rshoulderjoint rhumerus
    rhumerus rradius
    rradius rwrist
    rwrist rhand
  end

:FULLY-SPECIFIED
:DEGREES
2099
root 8.80273 3.58461 -0.379717 -275.655 -71.1662 79.2144
lowerback -17.3672 -1.83818 -2.65724
upperback -3.65413 -2.13147 -0.17498
thorax 5.89085 -1.16785 0.840791
lowerneck 11.4426 0.983348 -2.20362
upperneck -5.94768 0.682551 -2.99104
head -4.01155 0.5306 -0.65684
rshoulderjoint 1.72329 -4.38111 -32.4969
rhumerus -5.01944 -14.9789 -57.4385
rradius 29.9994 -2.22639e-013 -1.15096e-013
rwrist -1.6149e-014 10.0174 2.58383e-014
rhand 10.102 -8.41429 32.5053
lshoulderjoint 2.89291 11.5371 25.1799
lhumerus 1.32437 17.982 53.965
lradius 21.6265 2.09917e-013 9.58142e-014
lwrist -2.24626e-014 -7.62755 1.12313e-014
lhand 22.9998 7.34618 -13.9171
rfemur -13.5533 -7.75501 12.5249
rtibia 3.26007e-014 -3.89618e-014 9.54166e-015
rfoot -6.47564 14.8696 -7.53744
rtoes -6.04305e-014 1.11518e-013 -1.87653e-013
lfemur -12.0205 -10.7317 -17.4406
ltibia -2.8625e-014 -1.82882e-014 -1.27222e-014
lfoot -6.09099 -4.19204 14.9381
ltoes -9.34288e-015 2.45996e-015 2.54444e-014
2100
root 8.80341 3.58446 -0.377108 -275.492 -71.1847 79.384
lowerback -17.3547 -1.80761 -2.64194
upperback -3.63793 -2.09215 -0.192331
thorax 5.89885 -1.14814 0.822555
lowerneck 11.4623 0.956531 -2.17824
upperneck -5.96578 0.653444 -2.95237
head -4.02204 0.514397 -0.64667
rshoulderjoint 1.70243 -4.32118 -32.5275
rhumerus -5.02116 -14.7754 -57.5424
rradius 29.8835 -3.81667e-013 -1.01778e-013
rwrist -9.33025e-013 9.88272 3.58359e-013
rhand 10.0517 -8.37716 32.2606
lshoulderjoint 2.87272 11.3711 25.2793
lhumerus 1.36423 17.4726 53.9006
lradius 21.8274 4.13472e-013 6.79844e-014
lwrist -9.16197e-013 -7.64737 -3.06469e-013
lhand 22.7872 7.40281 -14.1477
rfemur -13.5566 -7.62339 12.4711
rtibia 6.83819e-014 -4.13472e-014 2.62396e-014
rfoot -6.41338 14.9876 -7.62304
rtoes -1.88448e-013 2.40032e-013 -2.24229e-013
lfemur -11.9986 -10.662 -17.4794
ltibia 2.94201e-014 -2.94201e-014 -3.65764e-014
lfoot -6.11775 -3.88339 14.8776
ltoes -1.42926e-013 7.03201e-014 6.04305e-014
2101
root 8.80394 3.58369 -0.37439 -275.131 -71.2428 79.7662
lowerback -17.261 -1.76669 -2.60825
upperback -3.65646 -2.04739 -0.198768
thorax 5.82565 -1.12515 0.809764
lowerneck 11.5233 0.942304 -2.14274
upperneck -5.97139 0.63761 -2.95307
head -4.03623 0.506335 -0.652712
rshoulderjoint 1.66424 -4.21796 -32.5554
rhumerus -5.0937 -14.574 -57.6156
rradius 29.7889 -1.01778e-013 -1.0476e-013
rwrist 8.48586e-013 9.68738 -2.19406e-013
rhand 10.0762 -8.25342 31.9429
lshoulderjoint 2.86963 11.2887 25.3631
lhumerus 1.33279 16.8384 53.808
lradius 22.0526 1.55847e-013 -5.1684e-015
lwrist 8.40846e-013 -7.67895 -1.28373e-014
lhand 22.6073 7.50536 -14.3974
rfemur -13.5317 -7.42143 12.4154
rtibia 6.75868e-014 1.11319e-014 -3.18055e-015
rfoot -6.38131 15.0627 -7.70051
rtoes 1.90833e-014 -7.54388e-014 2.54444e-014
lfemur -11.949 -10.5207 -17.5349
ltibia 3.97569e-014 7.15625e-015 7.15625e-015
lfoot -6.13907 -3.85665 14.861
ltoes -2.66371e-014 1.6847e-014 -3.18055e-014
2102
root 8.8044 3.58266 -0.371501 -274.772 -71.3029 80.1572
lowerback -17.1459 -1.7171 -2.52697
upperback -3.65395 -1.99797 -0.215548
thorax 5.76155 -1.09882 0.760191
lowerneck 11.4842 0.934946 -2.12583
upperneck -5.96552 0.633734 -2.93725
head -4.02623 0.502953 -0.649759
rshoulderjoint 1.66933 -4.2368 -32.5281
rhumerus -5.11015 -14.243 -57.6341
rradius 29.7486 -5.08889e-014 2.94201e-014
rwrist 3.99874e-013 9.50105 3.06355e-014
rhand 10.0944 -8.13004 31.5399
lshoulderjoint 2.88097 11.2841 25.4231
lhumerus 1.36363 16.269 53.6921
lradius 22.2743 7.31528e-014 -5.56597e-014
lwrist 3.5308e-013 -7.74212 -1.21973e-013
lhand 22.5248 7.5313 -14.53
rfemur -13.5024 -7.21881 12.3655
rtibia -9.30312e-014 -4.77083e-015 -7.15625e-015
rfoot -6.34032 15.0893 -7.79714
rtoes 1.82484e-013 -1.49784e-013 -4.6118e-014
lfemur -11.8949 -10.3783 -17.5858
ltibia 2.62396e-014 2.38542e-015 1.59028e-014
lfoot -6.15396 -3.93886 14.8457
ltoes 8.26944e-014 -6.2965e-014 -2.06736e-014
2103
root 8.80436 3.58144 -0.36826 -274.392 -71.3934 80.5339
lowerback -17.0189 -1.69445 -2.48007
upperback -3.65806 -1.98023 -0.203195
thorax 5.68718 -1.0886 0.754394
lowerneck 11.4468 0.959263 -2.20475
upperneck -5.90553 0.657385 -2.92908
head -3.99744 0.514618 -0.63364
rshoulderjoint 1.63502 -4.14296 -32.5591
rhumerus -5.17159 -13.9646 -57.6096
rradius 29.725 -1.04958e-013 1.32192e-013
rwrist -1.03774e-012 9.28741 4.91477e-013
rhand 10.1784 -8.00812 31.0712
lshoulderjoint 2.87855 11.307 25.3839
lhumerus 1.32533 15.7624 53.5262
lradius 22.4976 9.22361e-014 -1.18476e-013
lwrist -1.00793e-012 -7.76372 -4.36557e-013
lhand 22.5276 7.53069 -14.6601
rfemur -13.4235 -7.0238 12.2649
rtibia -8.0309e-014 4.77083e-015 8.74653e-015
rfoot -6.34006 15.0747 -7.88987
rtoes 9.46215e-014 -2.93207e-014 0
lfemur -11.7964 -10.2349 -17.6799
ltibia -5.725e-014 6.36111e-015 1.51076e-014
lfoot -6.20385 -3.90205 14.8178
ltoes 4.59193e-014 -8.2769e-014 -7.95139e-015
2104
root 8.80458 3.58028 -0.365276 -274.087 -71.4982 80.8764
lowerback -16.8487 -1.67601 -2.41456
upperback -3.6596 -1.97277 -0.173122
thorax 5.59269 -1.08284 0.75575
lowerneck 11.5022 0.974532 -2.28742
upperneck -5.9488 0.663287 -2.90682
head -4.02444 0.519515 -0.612655
rshoulderjoint 1.60291 -4.05421 -32.5938
rhumerus -5.2054 -13.7105 -57.5937
rradius 29.7341 -2.76708e-013 1.44715e-013
rwrist 4.63827e-013 9.09132 4.39669e-013
rhand 10.2803 -7.87943 30.5872
lshoulderjoint 2.88402 11.3506 25.3578
lhumerus 1.33128 15.2614 53.4182
lradius 22.7282 2.92611e-013 -9.30312e-014
lwrist 4.81652e-013 -7.89775 -3.43578e-013
lhand 22.5089 7.61712 -14.8628
rfemur -13.3356 -6.83835 12.2127
rtibia -1.51076e-014 -2.22639e-014 -1.35174e-014
rfoot -6.3183 15.0861 -7.98158
rtoes 1.56245e-013 3.93594e-014 -1.7175e-013
lfemur -11.6938 -10.0986 -17.7272
ltibia -5.40694e-014 -1.74931e-014 -1.51076e-014
lfoot -6.22893 -3.89708 14.7919
ltoes 1.71352e-013 2.18166e-014 3.02153e-014
2105
root 8.80423 3.57913 -0.362133 -273.83 -71.6301 81.1949
lowerback -16.6105 -1.65435 -2.28575
upperback -3.70447 -1.97502 -0.153289
thorax 5.41339 -1.08083 0.711027
lowerneck 11.5573 1.00554 -2.3574
upperneck -5.90881 0.694522 -2.88459
head -4.02137 0.535062 -0.594931
rshoulderjoint 1.57142 -3.97103 -32.6103
rhumerus -5.37476 -13.4712 -57.5314
rradius 29.7724 -6.99722e-014 -6.91771e-014
rwrist 4.83061e-014 9.02347 -5.79674e-014
rhand 10.3819 -7.86821 30.1222
lshoulderjoint 2.91363 11.4503 25.3798
lhumerus 1.27784 14.5725 53.2831
lradius 22.94 9.54166e-014 7.23576e-014
lwrist 6.42452e-014 -8.05645 7.70942e-014
lhand 22.4356 7.883 -15.1546
rfemur -13.2016 -6.66229 12.1777
rtibia 5.64548e-014 7.95139e-016 2.38542e-015
rfoot -6.32544 15.0598 -8.0827
rtoes -4.13472e-014 -8.66701e-014 6.36111e-014
lfemur -11.5495 -9.96625 -17.7592
ltibia 6.99722e-014 1.51076e-014 7.95139e-016
lfoot -6.27112 -3.86415 14.7692
ltoes -6.55989e-014 1.53313e-014 -2.8625e-014
2106
root 8.80398 3.57845 -0.359194 -273.646 -71.7374 81.3892
lowerback -16.4893 -1.60751 -2.25928
upperback -3.72876 -1.91976 -0.184831
thorax 5.31857 -1.05264 0.678152
lowerneck 11.7529 0.957735 -2.21771
upperneck -5.91214 0.640965 -2.93067
head -4.0614 0.508995 -0.633295
rshoulderjoint 1.54449 -3.90957 -32.5767
rhumerus -5.52365 -13.4363 -57.5259
rradius 29.8125 -1.55847e-013 -5.78463e-014
rwrist 8.62907e-013 8.95524 -8.69347e-014
rhand 10.5163 -7.8083 29.7402
lshoulderjoint 2.89904 11.2921 25.5002
lhumerus 1.24292 14.2668 53.2173
lradius 23.1578 1.87653e-013 -2.38542e-015
lwrist 7.81149e-013 -8.34699 -3.53607e-014
lhand 22.4125 8.04541 -15.3612
rfemur -13.0963 -6.52533 12.1066
rtibia 3.02153e-014 1.74931e-014 -8.74653e-015
rfoot -6.31871 15.1304 -8.17485
rtoes 2.8625e-014 -1.02672e-013 8.26944e-014
lfemur -11.4331 -9.87628 -17.8257
ltibia 4.53229e-014 2.06736e-014 1.82882e-014
lfoot -6.30281 -3.82072 14.7461
ltoes -1.28216e-014 -5.93124e-014 -3.18055e-015
2107
root 8.80357 3.57797 -0.356445 -273.497 -71.8216 81.5651
lowerback -16.3639 -1.61453 -2.2517
upperback -3.73793 -1.93676 -0.118934
thorax 5.24389 -1.06015 0.743678
lowerneck 11.8335 0.983084 -2.35802
upperneck -5.9358 0.650153 -2.90712
head -4.08673 0.516508 -0.601755
rshoulderjoint 1.5324 -3.86641 -32.6399
rhumerus -5.55286 -13.23 -57.4755
rradius 29.8559 -4.45278e-013 -7.39479e-014
rwrist 5.69664e-013 8.79984 2.23682e-013
rhand 10.657 -7.69914 29.4662
lshoulderjoint 2.88606 11.3248 25.3985
lhumerus 1.24062 13.7304 53.1175
lradius 23.3731 4.51639e-013 -8.82604e-014
lwrist 5.04664e-013 -8.32445 -4.53233e-013
lhand 22.43 8.09331 -15.6478
rfemur -13.0046 -6.39525 12.0557
rtibia -4.13472e-014 -7.15625e-015 6.36111e-015
rfoot -6.30665 15.119 -8.26756
rtoes 1.21259e-013 -2.23633e-014 -7.31528e-014
lfemur -11.339 -9.79608 -17.8677
ltibia 4.77083e-015 -4.77083e-015 1.98785e-014
lfoot -6.3269 -3.84131 14.7247
ltoes 1.1778e-013 -6.34869e-014 -6.67916e-014
2108
root 8.8029 3.5778 -0.35387 -273.422 -71.8759 81.7004
lowerback -16.2641 -1.59595 -2.16764
upperback -3.77722 -1.93083 -0.112638
thorax 5.14583 -1.05585 0.707497
lowerneck 11.9083 0.980339 -2.34589
upperneck -5.86843 0.647886 -2.90125
head -4.0775 0.514015 -0.601746
rshoulderjoint 1.53379 -3.87161 -32.6313
rhumerus -5.6686 -13.042 -57.4455
rradius 29.8992 2.03555e-013 -1.17283e-014
rwrist 5.63374e-013 8.89591 -3.07441e-013
rhand 10.6994 -7.82176 29.3353
lshoulderjoint 2.90043 11.3335 25.4568
lhumerus 1.23262 13.3383 53.0705
lradius 23.5408 -2.13097e-013 7.79236e-014
lwrist 6.11159e-013 -8.58845 4.0047e-013
lhand 22.4588 8.30655 -15.8834
rfemur -12.9442 -6.27732 12.0486
rtibia 2.3059e-014 7.95139e-015 -4.77083e-015
rfoot -6.33017 15.1382 -8.37298
rtoes -3.29983e-014 -1.4064e-013 1.01778e-013
lfemur -11.279 -9.73319 -17.8647
ltibia 1.19271e-014 2.06736e-014 1.27222e-014
lfoot -6.33304 -3.79967 14.7013
ltoes -5.66536e-014 -3.60297e-015 -6.52014e-014
